<?xml version="1.0" encoding="utf-8"?>
<!-- Generator: Adobe Illustrator 27.3.1, SVG Export Plug-In . SVG Version: 6.00 Build 0)  -->
<svg version="1.1" xmlns="http://www.w3.org/2000/svg" xmlns:xlink="http://www.w3.org/1999/xlink" x="0px"
	 y="0px" viewBox="0 0 776 500" style="enable-background:new 0 0 1024 768;" xml:space="preserve">
<style type="text/css">
	.st0{fill:none;}
	.leftColor{fill:#0055FF;}
	.st2{fill:#383838;}
	.rightColor{fill:#FF002B;}
	.st4{fill:#576066;}
	.st9{fill:#FFEC00;}
</style>
<g>
	<g>
		<path class="st0" d="M193,406C193.1,406,193.1,406,193,406c0.1-0.1,0.1-0.1,0-0.1C193.1,405.9,193,405.9,193,406z"/>
		<path class="st0" d="M491.1,108.1C491,108.1,491,108.1,491.1,108.1C491,108.1,491,108.1,491.1,108.1
			C491,108.1,491.1,108.1,491.1,108.1z"/>
		<path class="st0" d="M521.8,291.2c0,0-0.1-0.1-0.1-0.1c0.1,0.6,0.2,1.2,0.3,1.8c0-0.1,0-0.2,0-0.3
			C522,292,521.9,291.6,521.8,291.2z"/>
		<path class="st0" d="M505.3,160c0,0.1,0.1,0.3,0.1,0.4c0-0.1,0-0.3,0-0.4C505.4,160,505.3,160,505.3,160z"/>
		<path class="st0" d="M103.3,216.4c0,0.2,0,0.4-0.1,0.6c0.1-0.3,0.2-0.7,0.3-1C103.4,216.1,103.4,216.3,103.3,216.4z"/>
		<path class="st0" d="M147,337.3c-0.1,0.1-0.2,0.2-0.3,0.4C146.8,337.5,146.9,337.4,147,337.3C147,337.3,147,337.3,147,337.3z"/>
		<path class="st0" d="M544.1,151.3c0-0.2,0.1-0.3,0.2-0.5c0,0,0-0.1,0-0.1c-0.2,0.3-0.4,0.7-0.5,1
			C543.9,151.5,544,151.4,544.1,151.3z"/>
		<path class="st0" d="M77.7,204.4c0,0.2,0,0.4,0,0.6C77.7,204.8,77.7,204.6,77.7,204.4C77.7,204.4,77.7,204.4,77.7,204.4z"/>
		<path class="st0" d="M525,329.2c-0.2-1.4-0.5-2.7-0.7-4.1c0,0.3,0.1,0.6,0.1,0.9C524.6,327.1,524.8,328.1,525,329.2z"/>
		<path class="st0" d="M460.4,113.2c-0.6,0.1-1.2,0.2-1.8,0.3C459.5,113.4,459.8,113.3,460.4,113.2z"/>
		<path class="st0" d="M223.6,167.9c-0.1,0.1-0.2,0.3-0.3,0.4c0.4-0.1,0.7-0.1,1.1-0.2C224.2,168,223.9,167.9,223.6,167.9z"/>
		<path class="st0" d="M192.4,159.5C192.5,159.5,192.5,159.5,192.4,159.5c0,0-0.1,0-0.1,0c-0.4,0.1-0.7,0.1-1.1,0.2c0,0,0,0,0,0
			C191.6,159.7,192,159.6,192.4,159.5z"/>
		<path class="st0" d="M528.2,347.4C528.2,347.4,528.3,347.4,528.2,347.4c0.1,0,0.1-0.1,0.1-0.1
			C528.2,347.3,528.2,347.3,528.2,347.4z"/>
		<path class="st0" d="M179.7,176.2c-1.3,0.2-2.6,0.5-4,0.9c1.4-0.3,2.9-0.5,4.3-0.8C180,176.2,179.8,176.2,179.7,176.2z"/>
		<path class="leftColor" d="M193,405.7c-0.4-2.1-0.7-4.1-1.1-6.2c-2.8-16-5.7-31.9-8.7-47.9c-2.9-15.3-5.8-30.7-8.8-46
			c-2.9-15-5.9-30.1-9-45.1c-3.1-15.4-6.2-30.7-9.3-46.1c-3.1-15.4-6.3-30.9-9.4-46.3c-2.7,0.6-5.3,1.1-8,1.7
			c-8.8,2-17.7,4-26.4,6.4c-7,1.9-14.2,4.1-19.7,8.9c-10.9,9.5-8.7,25.7-6.7,38.4c0.4,1.7,0.8,3.4,1.1,5.2c2,9.6,3.9,19.2,5.7,28.9
			c2.2,11.8,4.4,23.5,6.5,35.3c2.2,12.2,4.4,24.4,6.7,36.6c2,10.7,4,21.4,6.1,32.1c2,9.9,3.6,20,7.2,29.6c2.2,6,5.4,11.9,10.7,15.8
			c5.8,4.3,13.1,5.1,20.1,4.7c8.2-0.4,16.4-1.8,24.5-2.9c6.2-0.9,12.4-1.8,18.6-2.8c0,0,0-0.1,0-0.1
			C193.1,405.8,193,405.7,193,405.7z M103.3,216.4c0.1-0.1,0.2-0.3,0.2-0.4c0.2-0.5,0.4-1.1,0.6-1.6c0,0,0-0.1,0-0.1
			c0.9-2.2,2.3-4.3,4-6c1.7-1.6,3.8-2.6,6-3.3c4.7-1.7,10-2.1,14.8-0.7c7.7,2.2,14.1,8.7,15.6,16.6c1.5,8-2.2,16.5-9.6,20
			c-4.1,1.9-8.9,2.2-13.3,1.7c-4.4-0.5-8.7-2.1-12-5.1c-5.5-4.9-8.4-13.3-6.5-20.5C103.2,216.8,103.3,216.6,103.3,216.4z
			 M146.2,299.5c-0.2,2.1-1.2,4-2.5,5.6c-1.2,1.5-2.8,2.4-4.5,3.2c-0.1,0-0.1,0.1-0.2,0.1c-2.1,1.1-5.2,0.6-7.4-0.2
			c-2.1-0.8-3.9-2.3-5.1-4.2c-2.3-3.7-2.5-8.4,0-12c2.7-3.9,8.1-4.9,12.4-3.2C142.9,290.5,146.6,294.9,146.2,299.5z M120.4,329.6
			c-2.1-0.2-4-1.2-5.6-2.5c-1.5-1.2-2.4-2.8-3.2-4.5c0-0.1-0.1-0.1-0.1-0.2c-1.1-2.1-0.6-5.2,0.2-7.4c0.8-2.1,2.3-3.9,4.2-5.1
			c3.7-2.3,8.4-2.5,12,0c3.9,2.7,4.9,8.1,3.2,12.4C129.5,326.3,125,330,120.4,329.6z M152.6,333.8c-0.2,2.1-1.2,4-2.5,5.6
			c-1.2,1.5-2.8,2.4-4.5,3.2c-0.1,0-0.1,0.1-0.2,0.1c-2.1,1.1-5.2,0.6-7.4-0.2c-2.1-0.8-3.9-2.3-5.1-4.2c-2.3-3.7-2.5-8.4,0-12
			c2.7-3.9,8.1-4.9,12.4-3.2C149.3,324.7,153,329.2,152.6,333.8z M165.4,315.8c-1.7,4.1-6.1,7.8-10.7,7.4c-2.1-0.2-4-1.2-5.6-2.5
			c-1.5-1.2-2.4-2.8-3.2-4.5c0-0.1-0.1-0.1-0.1-0.2c-1.1-2.1-0.6-5.2,0.2-7.4c0.8-2.1,2.3-3.9,4.2-5.1c3.7-2.3,8.4-2.5,12,0
			C166.1,306.1,167.1,311.5,165.4,315.8z"/>
		<path class="st2" d="M93.1,180.1c6.4-4.4,14-6.4,21.4-8.3c1.1-0.3,2.2-0.5,3.2-0.8c0-0.1,0-0.3,0-0.4c0.1-0.9-0.9-1.6-1.7-1.8
			c-1.4-0.4-3,0.2-4.3,0.7c-3.3,1.2-6.5,2.5-9.7,3.8c-5,2-10.7,3.5-14.4,7.6c-3.5,4-6.2,9-8.1,14c-1.2,3.1-1.7,6.3-1.9,9.6
			c0,0,0,0,0,0c0,0.2,0,0.3,0,0.5c-0.1,1.9,0,3.9,0.3,5.8c0.3,2.8,0.9,5.5,1.7,8.2c0.2,0.6,0.3,1.3,0.6,2c0.1,0.1,0.1,0.2,0.2,0.3
			c0,0,0,0,0,0c0.4-0.2,0.8-0.4,1.2-0.5c-0.1-0.7-0.2-1.4-0.3-2.1c-0.9-7-1.4-14.2,0.1-21.2C83.1,190.4,87,184.2,93.1,180.1z"/>
		<path class="st2" d="M114,236.7c3.3,2.1,7.4,2.8,11.2,2.8c3.9,0,7.8-0.8,10.9-3.1c5.2-3.9,6.7-11.5,4.5-17.4
			c-2.3-6.5-8.5-11.2-15.3-12.1c-3.8-0.5-7.7,0.2-11.2,1.6c-1.6,0.7-3,1.4-4.2,2.7c-1.1,1.3-2,2.7-2.7,4.3c0,0,0,0,0,0
			C103.8,222.7,107.3,232.6,114,236.7z"/>
		<path class="st2" d="M142.5,298.2c-0.4-2.9-3.4-5.7-6.1-6.4c-3-0.7-6.3,0.4-7.6,3.4c-1.2,2.6-0.4,5.7,1.4,7.8
			c1.6,1.8,4.8,3,7.1,2.1c0.1-0.1,0.2-0.1,0.3-0.2c1.5-0.6,2.4-1.3,3.3-2.4C141.9,301.3,142.7,299.9,142.5,298.2z"/>
		<path class="st2" d="M124.7,312.2c-2.6-1.2-5.7-0.4-7.8,1.4c-1.8,1.6-3,4.8-2.1,7.1c0.1,0.1,0.1,0.2,0.2,0.3
			c0.6,1.5,1.3,2.4,2.4,3.3c1.3,1,2.7,1.8,4.4,1.6c2.9-0.4,5.7-3.4,6.4-6.1C128.8,316.8,127.7,313.5,124.7,312.2z"/>
		<path class="st2" d="M147,337.3c0.1-0.1,0.2-0.3,0.4-0.4c1-1.3,1.8-2.7,1.6-4.4c-0.4-2.9-3.4-5.7-6.1-6.4c-3-0.7-6.3,0.4-7.6,3.4
			c-1.2,2.6-0.4,5.7,1.4,7.8c1.6,1.8,4.8,3,7.1,2.1c0.1-0.1,0.2-0.1,0.3-0.2c1.1-0.5,1.9-0.9,2.6-1.6
			C146.8,337.5,146.9,337.4,147,337.3C147,337.3,147,337.3,147,337.3z"/>
		<path class="st2" d="M159,305.8c-2.6-1.2-5.7-0.4-7.8,1.4c-1.8,1.6-3,4.8-2.1,7.1c0.1,0.1,0.1,0.2,0.2,0.3
			c0.6,1.5,1.3,2.4,2.4,3.3c1.3,1,2.7,1.8,4.4,1.6c2.9-0.4,5.7-3.4,6.4-6.1C163.1,310.4,161.9,307.1,159,305.8z"/>
		<path class="st2" d="M333.9,382.8c0.1,0,0.3-0.1,0.4-0.1c-1.7,0.3-3.5,0.7-5.2,1C330.7,383.6,332.3,383.3,333.9,382.8z"/>
		<path class="st2" d="M528.3,347.3c-0.4-2-0.7-4-1.1-6c-0.7-4-1.4-8-2.2-12c-0.2-1.1-0.4-2.1-0.6-3.2c0-0.3-0.1-0.6-0.1-0.9
			c-1.9-10.6-3.9-21.2-5.8-31.8c-2.9-15.3-5.8-30.7-8.8-46c-3-15.1-6-30.2-9-45.3c-3.1-15.4-6.2-30.7-9.3-46.1
			c-3.1-15.4-6.3-30.9-9.4-46.3c-7.2,1.2-14.3,2.4-21.5,3.7c-0.6,0.1-0.9,0.2-1.8,0.3c-0.9,0.2-1.8,0.3-2.7,0.5
			c-17.1,3-34.2,6.3-51.2,9.5c-16.8,3.2-33.6,6.5-50.5,9.8c-15.6,3-31.3,6-46.9,8.8c-2.3,0.4-4.6,0.7-6.9,1.1
			c-18,2.9-36.1,5.5-54.2,8.1c-17.9,2.6-35.9,5.3-53.8,8.3c0,0,0,0-0.1,0c-0.4,0.1-0.8,0.1-1.2,0.2c0,0,0,0,0,0
			c-13.7,2.3-27.4,4.8-41,7.6c0.3,1.6,0.7,3.3,1,4.9c3.2,15.9,6.5,31.8,9.7,47.7c3.1,15.3,6.2,30.6,9.3,45.9c3,15,6,30.1,8.9,45.1
			c3,15.4,5.9,30.8,8.8,46.2c3,16.1,5.9,32.1,8.7,48.2c0,0,0,0,0,0c1.2-0.2,2.4-0.4,3.6-0.6c17.4-2.9,34.8-6,52.2-9.4
			c17.3-3.4,34.7-6.9,52-10.4c16.4-3.3,32.7-6.7,49.1-9.9c0,0,0,0,0,0c0.7-0.1,1.3-0.3,2-0.4c0,0,0,0,0,0c0,0,0,0,0,0
			c1.4-0.3,2.9-0.6,4.3-0.8c18.1-3.5,36.4-6.3,54.7-9c19.7-2.9,39.4-5.7,59.1-8.6c18.2-2.7,36.3-5.6,54.4-8.9
			C528.2,347.3,528.2,347.3,528.3,347.3z M512.1,335.8c-0.1,0-0.3,0.1-0.4,0.1c0,0,0,0-0.1,0c-22.5,4.1-45.1,8.1-67.6,12.2
			c-39.7,7.2-79.4,14.5-119.1,21.3c-38.5,6.6-77,12.9-115.4,20c0,0-0.1,0-0.1,0c0,0-0.1,0-0.1,0c-0.8,0.2-1.4-0.2-1.7-0.8
			c-0.1-0.1-0.1-0.3-0.2-0.4c-3.4-15.3-6.7-30.6-9.9-45.9c-5.6-26.7-10.9-53.5-16.2-80.3c-4.8-24.3-9.4-48.6-14.2-72.9
			c-0.2-0.8-0.4-1.7-0.5-2.5c-0.4-2-0.8-4-1.2-6c-0.2-1,0.8-1.9,1.7-2c2.9-0.5,5.7-1.1,8.6-1.6c1.3-0.3,2.7-0.6,4-0.9
			c0.1,0,0.2,0,0.4,0.1c14.4-2.7,28.9-5.3,43.3-8c0.1-0.1,0.2-0.3,0.3-0.4c0.2,0.1,0.5,0.2,0.8,0.2c3.4-0.6,6.8-1.3,10.3-1.9
			c39.9-7.3,79.8-14.4,119.7-21.6c39.4-7.1,78.9-13.8,118.3-20.9c1-0.2,1.7,0.4,1.8,1.2c0.1,0.1,0.1,0.3,0.1,0.5
			c3,15.4,5.8,30.8,8.6,46.3c4.8,26.9,9.2,53.8,14,80.7c4.8,27.1,10,54.2,16,81.1C513.4,334.4,513.1,335.5,512.1,335.8z"/>
		<path class="st2" d="M557.6,235.7c-3.3-2.1-7.4-2.8-11.2-2.8c-3.9,0-7.8,0.8-10.9,3.1c-5.2,3.9-6.7,11.5-4.5,17.4
			c2.3,6.5,8.5,11.2,15.3,12.1c3.8,0.5,7.7-0.2,11.2-1.6c1.6-0.7,3-1.4,4.2-2.7c1.1-1.3,2-2.7,2.7-4.3c0,0,0,0,0,0
			C567.8,249.7,564.3,239.9,557.6,235.7z"/>
		<path class="st2" d="M541.4,169.4c-1.6-1.8-4.8-3-7.1-2.1c-0.1,0.1-0.2,0.1-0.3,0.2c-1.5,0.6-2.4,1.3-3.3,2.4
			c-1,1.3-1.8,2.7-1.6,4.4c0.4,2.9,3.4,5.7,6.1,6.4c3,0.7,6.3-0.4,7.6-3.4C543.9,174.6,543.2,171.5,541.4,169.4z"/>
		<path class="st2" d="M512.6,166.6c2.6,1.2,5.7,0.4,7.8-1.4c1.8-1.6,3-4.8,2.1-7.1c-0.1-0.1-0.1-0.2-0.2-0.3
			c-0.6-1.5-1.3-2.4-2.4-3.3c-1.3-1-2.7-1.8-4.4-1.6c-2.9,0.4-5.7,3.4-6.4,6.1C508.5,162,509.7,165.3,512.6,166.6z"/>
		<path class="st2" d="M536.4,143c1.2-2.6,0.4-5.7-1.4-7.8c-1.6-1.8-4.8-3-7.1-2.1c-0.1,0.1-0.2,0.1-0.3,0.2
			c-1.5,0.6-2.4,1.3-3.3,2.4c-1,1.3-1.8,2.7-1.6,4.4c0.4,2.9,3.4,5.7,6.1,6.4C531.8,147,535.1,145.9,536.4,143z"/>
		<path class="st2" d="M544.1,151.3c-0.1,0.1-0.2,0.3-0.3,0.5c-0.1,0.3-0.2,0.6-0.3,0.9c-0.7,3,0.4,6.3,3.4,7.6
			c2.6,1.2,5.7,0.4,7.8-1.4c1.8-1.6,3-4.8,2.1-7.1c-0.1-0.1-0.1-0.2-0.2-0.3c-0.6-1.5-1.3-2.4-2.4-3.3c-1.3-1-2.7-1.8-4.4-1.6
			c-2.2,0.3-4.4,2.1-5.5,4.2c0,0,0,0.1,0,0.1C544.3,150.9,544.2,151.1,544.1,151.3z"/>
		<path class="st2" d="M523.4,99.6c6.1-0.8,12.2-1.4,18.3-0.8c7.9,0.8,14.9,4.2,19.9,10.5c4.7,5.8,7.2,13.1,9.1,20.3
			c0.6,2.1,1.1,4.3,1.6,6.4c0.6-0.2,1.2-0.2,1.9-0.3c0.5,0,0.4,0,0.5-0.6c0.2-1.7-0.1-3.6-0.2-5.3c-0.3-3.5-1-7-2.2-10.4
			c-2.1-5.9-5.8-10.7-10.5-14.9c-2.2-2-4.5-4-7.1-5.4c-2.2-1.2-4.7-1.9-7.2-2.5c-2.2-0.6-4.3-1-6.5-1c-1.6,0-3.2,0.1-4.8,0.2
			c-2.6,0.2-5.2,0.1-7.8,0.3C526.7,96.3,522.4,97.1,523.4,99.6z"/>
		<path class="rightColor" d="M595.7,326.8c2.8-3.1,4.7-6.9,5.7-10.9c2-8.5,0.7-17.4-0.6-25.9c-0.4-1.9-0.8-3.7-1.2-5.6
			c-2.4-10.9-4.7-21.9-7-32.9c-2.8-13.2-5.5-26.5-8.2-39.8c-2.7-13.2-5.4-26.4-8.2-39.6c-2.2-10.4-4.4-20.9-6.7-31.3
			c-2.7-12.5-5.6-28.7-18-35.4c-7.2-3.9-15.7-3.5-23.5-2.7c-7.7,0.8-15.4,2-23,3.1c-4.7,0.7-9.4,1.4-14,2.2c0,0,0,0,0,0
			c0,0,0,0-0.1,0c-1.8,0.3-3.7,0.6-5.5,0.9c0.3,1.5,0.6,3.1,0.9,4.6c3.2,15.9,6.5,31.9,9.7,47.8c3.1,15.3,6.2,30.6,9.3,45.9
			c3,15.1,6,30.2,9,45.3c2.5,12.8,4.9,25.6,7.3,38.4c0,0,0.1,0.1,0.1,0.1c0.1,0.4,0.1,0.9,0.2,1.3c0,0.1,0,0.2,0,0.3
			c0.4,2,0.8,4,1.1,6c3,15.9,5.9,31.9,8.7,47.9c8.9-1.7,17.8-3.5,26.7-5.5c8.6-2,17.6-3.8,25.9-7.1
			C588.6,332.4,592.6,330.1,595.7,326.8z M519,138.6c0.2-2.1,1.2-4,2.5-5.6c1.2-1.5,2.8-2.4,4.5-3.2c0.1,0,0.1-0.1,0.2-0.1
			c2.1-1.1,5.2-0.6,7.4,0.2c2.1,0.8,3.9,2.3,5.1,4.2c2.3,3.7,2.5,8.4,0,12c-2.7,3.9-8.1,4.9-12.4,3.2
			C522.3,147.7,518.6,143.2,519,138.6z M540.1,164.2c2.1,0.8,3.9,2.3,5.1,4.2c2.3,3.7,2.5,8.4,0,12c-2.7,3.9-8.1,4.9-12.4,3.2
			c-4.1-1.7-7.8-6.1-7.4-10.7c0.2-2.1,1.2-4,2.5-5.6c1.2-1.5,2.8-2.4,4.5-3.2c0.1,0,0.1-0.1,0.2-0.1
			C534.9,162.9,537.9,163.3,540.1,164.2z M505.4,160.4c0-0.1-0.1-0.3-0.1-0.4c0,0,0.1,0,0.1,0c0.1-1.1,0.3-2.3,0.8-3.3
			c1.7-4.1,6.1-7.8,10.7-7.4c2.1,0.2,4,1.2,5.6,2.5c1.5,1.2,2.4,2.8,3.2,4.5c0,0.1,0.1,0.1,0.1,0.2c1.1,2.1,0.6,5.2-0.2,7.4
			c-0.8,2.1-2.3,3.9-4.2,5.1c-3.7,2.3-8.4,2.5-12,0C506.6,167.1,505.3,163.7,505.4,160.4z M567.4,258c0,0,0,0.1,0,0.1
			c-1,2.2-2.3,4.3-4,6c-1.7,1.6-3.8,2.6-6,3.3c-4.7,1.7-10,2.1-14.8,0.7c-7.7-2.2-14.1-8.7-15.6-16.6c-1.5-8,2.2-16.5,9.6-20
			c4.1-1.9,8.9-2.2,13.3-1.7c4.4,0.5,8.7,2.1,12,5.1C568.1,240.4,571,250.3,567.4,258z M543.7,162.6c-3.9-2.7-4.9-8.1-3.2-12.4
			c1.7-4.1,6.1-7.8,10.7-7.4c2.1,0.2,4,1.2,5.6,2.5c1.5,1.2,2.4,2.8,3.2,4.5c0,0.1,0.1,0.1,0.1,0.2c1.1,2.1,0.6,5.2-0.2,7.4
			c-0.8,2.1-2.3,3.9-4.2,5.1C552,164.9,547.3,165.1,543.7,162.6z"/>
		<path class="st4" d="M178.1,226.4c5.2,26.7,10.3,53.3,15.7,80c5.3,26.4,10.9,52.8,16.7,79.1c21.3-3.9,42.6-7.7,64-11.3
			c38.9-6.6,77.9-13.3,116.8-20.3c39.3-7.1,78.7-14.2,118-21.3c-3.2-14.6-6.3-29.3-9.1-44c-5.2-27-9.8-54-14.5-81.1
			c-4.6-26.7-9.2-53.3-14.4-79.9c-21.7,3.9-43.3,7.7-65,11.5c-39.7,6.9-79.4,14.1-119,21.3c-39.3,7.1-78.6,14.2-117.9,21.5
			C172.3,196.7,175.2,211.5,178.1,226.4z"/>
		<path class="st4" d="M167.1,189.1c-0.2-0.8-0.3-1.7-0.5-2.5C166.7,187.4,166.9,188.2,167.1,189.1z"/>
		<path d="M604.4,289.2c-2.2-10-4.3-20-6.4-30c-2.7-13.1-5.4-26.1-8.1-39.2c-2.8-13.5-5.5-27-8.3-40.5c-2.4-11.5-4.8-22.9-7.2-34.4
			c-0.4-1.9-0.8-3.7-1.2-5.6c0.6-0.2,1.2-0.2,1.9-0.3c0.9-0.2,1.8-0.5,2.4-1.3c1-1.2,1-3,0.9-4.5c-0.1-3.7-0.5-7.3-1.3-10.9
			c-1.7-7.2-5.3-13.4-10.5-18.6c-2.4-2.5-5.1-4.8-8-6.7c-2.7-1.8-5.5-2.8-8.6-3.7c-2.7-0.8-5.4-1.4-8.3-1.5
			c-1.9-0.1-3.8,0.1-5.6,0.2c-3.5,0.3-7.3-0.1-10.8,0.8c-1.8,0.5-3.5,1.4-4.5,2.9c-0.8,1.2-1.2,2.7-0.9,4.2c-0.7,0.1-1.3,0.2-2,0.3
			c-16.1,2.2-32.2,4.7-48.2,7.5c-17.2,3-34.4,6.1-51.6,9.4c-17.1,3.3-34.3,6.6-51.4,9.9c-16.1,3.1-32.2,6.2-48.4,9.2
			c-3.7,0.7-7.4,1.3-11.1,2c-18.4,3-36.9,5.7-55.4,8.4c-18.4,2.7-36.8,5.4-55.1,8.4c-18.4,3-36.7,6.3-54.8,10.3
			c-6.8,1.5-13.6,3-20.4,4.7c-0.2-2.4-2.2-4.4-4.6-5c-3.4-0.8-6.9,1.1-10,2.3c-3.4,1.3-6.8,2.7-10.2,4c-2.9,1.2-6,2.2-8.6,4.1
			c-2.5,1.9-4.5,4.4-6.2,7c-1.7,2.7-3.4,5.5-4.7,8.5c-2.6,5.9-3.6,12.3-3,18.8c0.3,3.7,1.1,7.4,2.2,11c0.5,1.5,1,3,2.5,3.8
			c0.8,0.4,1.7,0.4,2.6,0.2c0.3-0.1,0.6-0.2,0.9-0.4c1.9,8.6,3.7,17.5,5.4,26.4c2.2,11.6,4.4,23.2,6.5,34.8
			c2.3,12.4,4.5,24.8,6.8,37.1c2.1,11.2,4.1,22.5,6.3,33.7c1.8,9.5,3.6,19,6.1,28.3c1.7,6.5,4,13,7.9,18.5
			c4.1,5.8,9.9,9.7,16.8,11.3c7.3,1.6,14.9,0.8,22.3-0.2c8.7-1.1,17.4-2.3,26.1-3.6c17.6-2.7,35.1-5.7,52.6-9
			c17.5-3.3,35-6.8,52.5-10.3c12.5-2.5,25-5.1,37.5-7.6c1.7-0.4,3.5-0.7,5.2-1c3.1-0.6,6.1-1.2,9.2-1.8c4.1-0.8,8.1-1.6,12.2-2.4
			c17.7-3.5,35.5-6.3,53.3-9c19.9-3,39.9-5.8,59.8-8.7c19.9-2.9,39.7-6,59.4-9.6c9.2-1.7,18.4-3.5,27.5-5.5
			c8.8-1.9,17.8-3.8,26.4-6.7c8.8-2.9,17-7.9,20.9-16.6c3.7-8.1,3.4-17.4,2.3-26c-0.3-2.2-0.6-4.4-0.9-6.6c0-0.1,0-0.2-0.1-0.3
			C604.4,289.3,604.4,289.2,604.4,289.2z M558.5,341.2c-8.9,2-17.8,3.8-26.7,5.5c-2.8-16-5.7-31.9-8.7-47.9c-0.4-2-0.8-4-1.1-6
			c-0.1-0.6-0.2-1.2-0.3-1.8c-2.4-12.8-4.8-25.6-7.3-38.4c-2.9-15.1-5.9-30.2-9-45.3c-3.1-15.3-6.2-30.6-9.3-45.9
			c-3.2-15.9-6.5-31.9-9.7-47.8c-0.3-1.5-0.6-3.1-0.9-4.6c1.8-0.3,3.7-0.6,5.5-0.9c0,0,0.1,0,0.1,0c4.7-0.7,9.4-1.5,14-2.2
			c7.7-1.1,15.3-2.2,23-3.1c7.9-0.9,16.3-1.2,23.5,2.7c12.3,6.7,15.2,22.9,18,35.4c2.3,10.4,4.5,20.9,6.7,31.3
			c2.7,13.2,5.5,26.4,8.2,39.6c2.7,13.3,5.4,26.5,8.2,39.8c2.3,11,4.6,21.9,7,32.9c0.4,1.9,0.8,3.7,1.2,5.6
			c1.3,8.5,2.6,17.4,0.6,25.9c-1,4.1-2.8,7.9-5.7,10.9c-3.1,3.3-7.2,5.6-11.3,7.3C576.2,337.5,567.2,339.2,558.5,341.2z M528.4,96.2
			c2.6-0.2,5.2-0.1,7.8-0.3c1.6-0.1,3.2-0.2,4.8-0.2c2.2,0,4.4,0.4,6.5,1c2.4,0.7,4.9,1.3,7.2,2.5c2.6,1.4,4.9,3.4,7.1,5.4
			c4.6,4.1,8.4,9,10.5,14.9c1.2,3.4,1.9,6.9,2.2,10.4c0.2,1.7,0.4,3.6,0.2,5.3c-0.1,0.5,0.1,0.6-0.5,0.6c-0.6,0-1.3,0.1-1.9,0.3
			c-0.5-2.2-1-4.3-1.6-6.4c-1.9-7.1-4.4-14.4-9.1-20.3c-5-6.2-12-9.7-19.9-10.5c-6.1-0.6-12.2,0-18.3,0.8
			C522.4,97.1,526.7,96.3,528.4,96.2z M81.7,220.7c-0.4,0.1-0.9,0.3-1.2,0.5c0,0,0,0,0,0c-0.1-0.1-0.1-0.2-0.2-0.3
			c-0.3-0.6-0.4-1.3-0.6-2c-0.8-2.7-1.4-5.4-1.7-8.2c-0.2-1.9-0.3-3.9-0.3-5.8c0-0.2,0-0.4,0-0.6c0.2-3.3,0.7-6.5,1.9-9.6
			c1.8-4.9,4.6-10,8.1-14c3.7-4.2,9.4-5.7,14.4-7.6c3.2-1.3,6.4-2.6,9.7-3.8c1.3-0.5,2.9-1.1,4.3-0.7c0.8,0.2,1.8,0.9,1.7,1.8
			c0,0.2,0,0.3,0,0.4c-1.1,0.3-2.2,0.5-3.2,0.8c-7.4,1.9-15.1,3.9-21.4,8.3c-6,4.1-9.9,10.3-11.5,17.4c-1.5,6.9-1,14.2-0.1,21.2
			C81.5,219.3,81.6,220,81.7,220.7z M193,406c-6.2,1-12.4,1.9-18.6,2.8c-8.1,1.1-16.3,2.5-24.5,2.9c-7,0.3-14.3-0.4-20.1-4.7
			c-5.2-3.9-8.4-9.8-10.7-15.8c-3.5-9.6-5.2-19.7-7.2-29.6c-2.1-10.7-4.1-21.4-6.1-32.1c-2.3-12.2-4.5-24.4-6.7-36.6
			c-2.1-11.8-4.3-23.6-6.5-35.3c-1.8-9.6-3.7-19.3-5.7-28.9c-0.4-1.7-0.7-3.4-1.1-5.2c-2-12.7-4.2-28.9,6.7-38.4
			c5.5-4.8,12.7-7.1,19.7-8.9c8.8-2.3,17.6-4.4,26.4-6.4c2.7-0.6,5.3-1.2,8-1.7c3.1,15.4,6.3,30.9,9.4,46.3
			c3.1,15.4,6.3,30.7,9.3,46.1c3,15,6,30.1,9,45.1c3,15.3,5.9,30.7,8.8,46c3,15.9,5.9,31.9,8.7,47.9c0.4,2.1,0.7,4.1,1.1,6.2
			c0,0.1,0,0.1,0,0.2C193.1,405.9,193.1,405.9,193,406C193.1,406,193.1,406,193,406z M528.2,347.4c-18.1,3.3-36.2,6.2-54.4,8.9
			c-19.7,2.9-39.4,5.7-59.1,8.6c-18.3,2.7-36.5,5.6-54.7,9c-1.4,0.3-2.9,0.6-4.3,0.8c0,0,0,0,0,0c0,0,0,0,0,0
			c-0.7,0.1-1.3,0.3-2,0.4c0,0,0,0,0,0c-16.4,3.2-32.8,6.6-49.1,9.9c-17.3,3.5-34.6,7-52,10.4c-17.4,3.4-34.7,6.5-52.2,9.4
			c-1.2,0.2-2.4,0.4-3.6,0.6c0,0,0,0,0,0c-2.8-16.1-5.7-32.2-8.7-48.2c-2.9-15.4-5.8-30.8-8.8-46.2c-2.9-15.1-5.9-30.1-8.9-45.1
			c-3.1-15.3-6.2-30.6-9.3-45.9c-3.2-15.9-6.5-31.8-9.7-47.7c-0.3-1.6-0.7-3.3-1-4.9c13.6-2.8,27.3-5.3,41-7.6
			c0.4-0.1,0.7-0.1,1.1-0.2c0.1,0,0.1,0,0.2,0c17.9-3,35.8-5.6,53.8-8.3c18.1-2.6,36.2-5.2,54.2-8.1c2.3-0.4,4.6-0.7,6.9-1.1
			c15.7-2.8,31.3-5.8,46.9-8.8c16.8-3.2,33.6-6.5,50.5-9.8c17-3.3,34.1-6.5,51.2-9.5c0.9-0.2,1.8-0.3,2.7-0.5
			c0.6-0.1,1.2-0.2,1.8-0.3c7.2-1.3,14.3-2.5,21.5-3.7c3.1,15.4,6.3,30.9,9.4,46.3c3.1,15.3,6.2,30.7,9.3,46.1c3,15.1,6,30.2,9,45.3
			c3,15.3,5.9,30.6,8.8,46c2,10.6,3.9,21.2,5.8,31.8c0.2,1.4,0.5,2.7,0.7,4.1c0.7,4,1.5,8,2.2,12c0.4,2,0.7,4,1.1,6
			C528.3,347.3,528.3,347.3,528.2,347.4C528.3,347.4,528.2,347.4,528.2,347.4z"/>
		<path d="M109.7,237.6c3.3,3,7.6,4.5,12,5.1c4.4,0.5,9.2,0.3,13.3-1.7c7.4-3.5,11.1-12.1,9.6-20c-1.5-8-7.8-14.4-15.6-16.6
			c-4.8-1.4-10.1-1-14.8,0.7c-2.1,0.8-4.3,1.8-6,3.3c-1.7,1.7-3.1,3.8-4,6c0,0,0,0.1,0,0.1c-0.2,0.5-0.4,1-0.6,1.6
			c-0.1,0.3-0.2,0.7-0.3,1C101.3,224.3,104.2,232.7,109.7,237.6z M107.3,215.5C107.3,215.5,107.3,215.5,107.3,215.5
			c0.7-1.6,1.6-3,2.8-4.3c1.2-1.3,2.6-2,4.2-2.7c3.5-1.4,7.4-2.1,11.2-1.6c6.8,0.9,12.9,5.5,15.3,12.1c2.1,5.9,0.6,13.5-4.5,17.4
			c-3.1,2.4-7.1,3.1-10.9,3.1c-3.9,0-7.9-0.8-11.2-2.8C107.3,232.6,103.8,222.7,107.3,215.5z"/>
		<path d="M138.8,288.8c-4.3-1.7-9.7-0.7-12.4,3.2c-2.5,3.7-2.3,8.4,0,12c1.2,1.9,3,3.4,5.1,4.2c2.2,0.8,5.2,1.3,7.4,0.2
			c0.1,0,0.2-0.1,0.2-0.1c1.7-0.8,3.3-1.7,4.5-3.2c1.3-1.6,2.4-3.5,2.5-5.6C146.6,294.9,142.9,290.5,138.8,288.8z M137.4,305.1
			c-2.3,1-5.6-0.3-7.1-2.1c-1.9-2.1-2.6-5.2-1.4-7.8c1.3-2.9,4.6-4.1,7.6-3.4c2.8,0.7,5.8,3.4,6.1,6.4c0.2,1.6-0.6,3.1-1.6,4.4
			c-0.9,1.1-1.8,1.7-3.3,2.4C137.6,305,137.5,305.1,137.4,305.1z"/>
		<path d="M145.2,323.1c-4.3-1.7-9.7-0.7-12.4,3.2c-2.5,3.7-2.3,8.4,0,12c1.2,1.9,3,3.4,5.1,4.2c2.2,0.8,5.2,1.3,7.4,0.2
			c0.1,0,0.2-0.1,0.2-0.1c1.7-0.8,3.3-1.7,4.5-3.2c1.3-1.6,2.4-3.5,2.5-5.6C153,329.2,149.3,324.7,145.2,323.1z M144.1,339.2
			c-0.1,0-0.2,0.1-0.3,0.2c-2.3,1-5.6-0.3-7.1-2.1c-1.9-2.1-2.6-5.2-1.4-7.8c1.3-2.9,4.6-4.1,7.6-3.4c2.8,0.7,5.8,3.4,6.1,6.4
			c0.2,1.6-0.6,3.1-1.6,4.4c-0.1,0.1-0.2,0.3-0.4,0.4c-0.1,0.1-0.2,0.3-0.3,0.4C146,338.3,145.2,338.7,144.1,339.2z"/>
		<path d="M150.1,303.5c-1.9,1.2-3.4,3-4.2,5.1c-0.8,2.2-1.3,5.2-0.2,7.4c0,0.1,0.1,0.1,0.1,0.2c0.8,1.7,1.7,3.3,3.2,4.5
			c1.6,1.3,3.5,2.4,5.6,2.5c4.6,0.4,9.1-3.3,10.7-7.4c1.7-4.3,0.7-9.7-3.2-12.4C158.5,300.9,153.8,301.1,150.1,303.5z M162.4,313.4
			c-0.7,2.8-3.4,5.8-6.4,6.1c-1.6,0.2-3.1-0.6-4.4-1.6c-1.1-0.9-1.7-1.8-2.4-3.3c0-0.1-0.1-0.2-0.2-0.3c-1-2.3,0.3-5.6,2.1-7.1
			c2.1-1.9,5.2-2.6,7.8-1.4C161.9,307.1,163.1,310.4,162.4,313.4z"/>
		<path d="M131.1,322.2c1.7-4.3,0.7-9.7-3.2-12.4c-3.7-2.5-8.4-2.3-12,0c-1.9,1.2-3.4,3-4.2,5.1c-0.8,2.2-1.3,5.2-0.2,7.4
			c0,0.1,0.1,0.1,0.1,0.2c0.8,1.7,1.7,3.3,3.2,4.5c1.6,1.3,3.5,2.4,5.6,2.5C125,330,129.5,326.3,131.1,322.2z M128.1,319.8
			c-0.7,2.8-3.4,5.8-6.4,6.1c-1.6,0.2-3.1-0.6-4.4-1.6c-1.1-0.9-1.7-1.8-2.4-3.3c0-0.1-0.1-0.2-0.2-0.3c-1-2.3,0.3-5.6,2.1-7.1
			c2.1-1.9,5.2-2.6,7.8-1.4C127.7,313.5,128.8,316.8,128.1,319.8z"/>
		<path d="M549.9,229.8c-4.4-0.5-9.2-0.3-13.3,1.7c-7.4,3.5-11.1,12.1-9.6,20c1.5,8,7.8,14.4,15.6,16.6c4.8,1.4,10.1,1,14.8-0.7
			c2.1-0.8,4.3-1.8,6-3.3c1.7-1.7,3.1-3.8,4-6c0,0,0-0.1,0-0.1c3.5-7.7,0.6-17.6-5.5-23.2C558.6,231.9,554.3,230.3,549.9,229.8z
			 M564.3,256.9C564.3,256.9,564.3,257,564.3,256.9c-0.7,1.6-1.6,3-2.8,4.3c-1.2,1.3-2.6,2-4.2,2.7c-3.5,1.4-7.4,2.1-11.2,1.6
			c-6.8-0.9-12.9-5.5-15.3-12.1c-2.1-5.9-0.6-13.5,4.5-17.4c3.1-2.4,7.1-3.1,10.9-3.1c3.9,0,7.9,0.8,11.2,2.8
			C564.3,239.9,567.8,249.7,564.3,256.9z"/>
		<path d="M532.7,164c-0.1,0-0.2,0.1-0.2,0.1c-1.7,0.8-3.3,1.7-4.5,3.2c-1.3,1.6-2.4,3.5-2.5,5.6c-0.4,4.6,3.3,9.1,7.4,10.7
			c4.3,1.7,9.7,0.7,12.4-3.2c2.5-3.7,2.3-8.4,0-12c-1.2-1.9-3-3.4-5.1-4.2C537.9,163.3,534.9,162.9,532.7,164z M542.8,177.2
			c-1.3,2.9-4.6,4.1-7.6,3.4c-2.8-0.7-5.8-3.4-6.1-6.4c-0.2-1.6,0.6-3.1,1.6-4.4c0.9-1.1,1.8-1.7,3.3-2.4c0.1,0,0.2-0.1,0.3-0.2
			c2.3-1,5.6,0.3,7.1,2.1C543.2,171.5,543.9,174.6,542.8,177.2z"/>
		<path d="M526.4,149.4c4.3,1.7,9.7,0.7,12.4-3.2c2.5-3.7,2.3-8.4,0-12c-1.2-1.9-3-3.4-5.1-4.2c-2.2-0.8-5.2-1.3-7.4-0.2
			c-0.1,0-0.2,0.1-0.2,0.1c-1.7,0.8-3.3,1.7-4.5,3.2c-1.3,1.6-2.4,3.5-2.5,5.6C518.6,143.2,522.3,147.7,526.4,149.4z M528.8,146.3
			c-2.8-0.7-5.8-3.4-6.1-6.4c-0.2-1.6,0.6-3.1,1.6-4.4c0.9-1.1,1.8-1.7,3.3-2.4c0.1,0,0.2-0.1,0.3-0.2c2.3-1,5.6,0.3,7.1,2.1
			c1.9,2.1,2.6,5.2,1.4,7.8C535.1,145.9,531.8,147,528.8,146.3z"/>
		<path d="M521.5,169c1.9-1.2,3.4-3,4.2-5.1c0.8-2.2,1.3-5.2,0.2-7.4c0-0.1-0.1-0.2-0.1-0.2c-0.8-1.7-1.7-3.3-3.2-4.5
			c-1.6-1.3-3.5-2.4-5.6-2.5c-4.6-0.4-9.1,3.3-10.7,7.4c-0.4,1.1-0.7,2.2-0.8,3.3c0,0.1,0,0.3,0,0.4c-0.1,3.3,1.2,6.6,4,8.6
			C513.1,171.5,517.8,171.3,521.5,169z M509.2,159c0.7-2.8,3.4-5.8,6.4-6.1c1.6-0.2,3.1,0.6,4.4,1.6c1.1,0.9,1.7,1.8,2.4,3.3
			c0,0.1,0.1,0.2,0.2,0.3c1,2.3-0.3,5.6-2.1,7.1c-2.1,1.9-5.2,2.6-7.8,1.4C509.7,165.3,508.5,162,509.2,159z"/>
		<path d="M559.9,157.5c0.8-2.2,1.3-5.2,0.2-7.4c0-0.1-0.1-0.2-0.1-0.2c-0.8-1.7-1.7-3.3-3.2-4.5c-1.6-1.3-3.5-2.4-5.6-2.5
			c-4.6-0.4-9.1,3.3-10.7,7.4c-1.7,4.3-0.7,9.7,3.2,12.4c3.7,2.5,8.4,2.3,12,0C557.6,161.4,559.1,159.6,559.9,157.5z M549.9,146.5
			c1.6-0.2,3.1,0.6,4.4,1.6c1.1,0.9,1.7,1.8,2.4,3.3c0,0.1,0.1,0.2,0.2,0.3c1,2.3-0.3,5.6-2.1,7.1c-2.1,1.9-5.2,2.6-7.8,1.4
			c-2.9-1.3-4.1-4.6-3.4-7.6c0.1-0.3,0.2-0.6,0.3-0.9c0.1-0.4,0.3-0.7,0.5-1C545.5,148.6,547.6,146.8,549.9,146.5z"/>
		<path d="M483.2,171.6c-2.7-15.4-5.6-30.9-8.6-46.3c0-0.2-0.1-0.3-0.1-0.5c-0.2-0.8-0.8-1.4-1.8-1.2
			c-39.4,7.1-78.9,13.8-118.3,20.9c-39.9,7.2-79.8,14.4-119.7,21.6c-3.4,0.6-6.9,1.3-10.3,1.9c-0.4,0.1-0.7,0.1-1.1,0.2
			c-14.4,2.6-28.9,5.3-43.3,8c-1.4,0.3-2.9,0.5-4.3,0.8c-2.9,0.5-5.7,1.1-8.6,1.6c-0.9,0.1-1.9,1-1.7,2c0.4,2,0.8,4,1.2,6
			c0.2,0.8,0.3,1.7,0.5,2.5c4.7,24.3,9.4,48.6,14.2,72.9c5.2,26.8,10.6,53.6,16.2,80.3c3.2,15.3,6.5,30.6,9.9,45.9
			c0,0.2,0.1,0.3,0.2,0.4c0.3,0.6,0.8,1,1.7,0.8c0,0,0.1,0,0.1,0c0,0,0.1,0,0.1,0c38.4-7.1,76.9-13.4,115.4-20
			c39.8-6.8,79.4-14.1,119.1-21.3c22.5-4.1,45.1-8.1,67.6-12.2c0,0,0,0,0.1,0c0.1,0,0.3,0,0.4-0.1c1-0.4,1.3-1.4,1.1-2.3
			c-6-26.9-11.2-54-16-81.1C492.4,225.5,488,198.5,483.2,171.6z M287.3,160.3c39.7-7.2,79.3-14.4,119-21.3
			c21.7-3.8,43.4-7.6,65-11.5c5.2,26.6,9.8,53.2,14.4,79.9c4.6,27.1,9.3,54.1,14.5,81.1c2.8,14.7,5.9,29.4,9.1,44
			c-39.3,7.1-78.7,14.2-118,21.3c-38.9,7-77.8,13.7-116.8,20.3c-21.3,3.6-42.7,7.3-64,11.3c-5.9-26.3-11.4-52.7-16.7-79.1
			c-5.4-26.6-10.5-53.3-15.7-80c-2.9-14.8-5.8-29.7-8.7-44.5C208.7,174.6,248,167.4,287.3,160.3z"/>
	</g>
	
	
	
	
	<g>
		<path class="st9" d="M624.5,172.7c6-8.9,11.6-18,16.7-27.4c1.2-2.2,2.5-4.4,3.5-6.7c0.7-1.6,1.4-3.9-0.4-5c-1-0.6-2.3-0.9-3.4-1.2
			c-1.3-0.4-2.6-0.8-3.8-1.2c-2.7-0.8-5.4-1.7-8.1-2.5c-0.7-0.2-1.4-1.1-1.2-1.9c1-4.9,2.1-9.7,3.2-14.5c2.9-12.8,6.1-25.5,9.5-38.1
			c-1.3,2.1-2.6,4.3-3.9,6.4c-7.2,11.9-14.3,23.8-20.4,36.2c-2.6,5.2-5,10.5-6.8,16c-0.4,1.2-0.8,2.4-1,3.7
			c-0.1,0.7-0.2,1.5,0.5,1.9c0.7,0.4,1.8,0.3,2.6,0.4c4.9,0.4,9.9,0.8,14.8,1.1c1.3,0.1,1.9,1.3,1.6,2.4
			c-3.7,13.3-7.2,26.7-10.5,40.1c0.7-0.8,1.3-1.6,1.9-2.4C621.1,177.7,622.8,175.2,624.5,172.7z"/>
		<path class="st9" d="M680.4,152.8c-2.2,1.9-4.4,3.8-6.4,5.8c-2.1,2-4.2,4.1-5.8,6.6c3.2,0.5,6.5,1,9.7,1.5c1.6,0.3,4.3,0.2,5,2.1
			c0.6,1.9-1.4,3.7-2.5,5c-3.3,4.3-6.6,8.5-9.9,12.8c1.2-0.7,2.4-1.4,3.6-2.1c6.6-3.9,13.1-8.1,19.4-12.4c1.6-1.1,3.2-2.2,4.7-3.3
			c0.1-0.1,0.2-0.2,0.4-0.3c-0.1-0.1-0.2-0.2-0.3-0.3c-0.7-0.5-1.4-1-2.1-1.5c-3-2-6.2-3.7-9.5-5c-1-0.4-1.7-1.8-0.9-2.8
			c3.2-3.9,5.5-8.5,7.7-13c1-2.1,2-4.3,3.1-6.5c-0.1,0.1-0.2,0.2-0.3,0.3C691,144,685.6,148.3,680.4,152.8z"/>
		<path d="M640.2,128.3c-2.8-0.9-5.7-1.8-8.5-2.6c3.4-16.2,7.3-32.3,11.6-48.2c1.3-4.7,2.6-9.4,4-14.1c0.6-1.9-1.8-3.1-3-2
			c-0.3,0.1-0.7,0.3-0.9,0.8c-6.7,11.3-13.7,22.5-20.2,33.9c-3.7,6.4-7.2,12.9-10.5,19.5c-2.7,5.4-5.2,10.9-7,16.7
			c-0.5,1.7-1.1,3.5-1,5.3c0.1,2.5,1.7,4.3,4.1,4.8c2.7,0.5,5.5,0.5,8.2,0.7c2.2,0.2,4.5,0.3,6.7,0.5c-3.8,14-7.5,28.1-10.9,42.2
			c-0.3,1.3,0.6,2.7,2.1,2.4c2.6-0.5,4.5-2.2,6.1-4.2c1.7-2.1,3.2-4.4,4.7-6.6c3.4-4.9,6.6-9.9,9.8-15c3.1-5,6-10.1,8.8-15.3
			c1.3-2.4,2.8-4.9,3.8-7.5c0.9-2.3,1.3-5-0.1-7.1C646.5,129.7,643,129.1,640.2,128.3z M627.8,142.5c0.3-1.1-0.3-2.4-1.6-2.4
			c-4.9-0.4-9.9-0.8-14.8-1.1c-0.8-0.1-1.9,0-2.6-0.4c-0.6-0.4-0.6-1.3-0.5-1.9c0.1-1.3,0.6-2.5,1-3.7c1.8-5.5,4.2-10.8,6.8-16
			c6.1-12.4,13.3-24.4,20.4-36.2c1.3-2.1,2.6-4.3,3.9-6.4c-3.5,12.6-6.7,25.3-9.5,38.1c-1.1,4.8-2.1,9.7-3.2,14.5
			c-0.2,0.8,0.5,1.7,1.2,1.9c2.7,0.8,5.4,1.7,8.1,2.5c1.3,0.4,2.6,0.8,3.8,1.2c1.1,0.3,2.4,0.6,3.4,1.2c1.8,1.1,1,3.4,0.4,5
			c-1,2.3-2.3,4.5-3.5,6.7c-5.1,9.4-10.7,18.6-16.7,27.4c-1.7,2.5-3.4,5-5.2,7.4c-0.6,0.8-1.2,1.7-1.9,2.4
			C620.7,169.2,624.1,155.8,627.8,142.5z"/>
		<path d="M703.3,130.4c-0.7-0.5-1.8-0.4-2.4,0.3c-9.3,8.7-19.9,16.1-29.1,24.9c-3.2,3-6.3,6.2-8.1,10.3c-0.5,1.2,0.5,2.3,1.6,2.4
			c2.6,0.4,5.2,0.8,7.7,1.2c1.3,0.2,2.5,0.4,3.8,0.6c0.6,0.1,1.2,0.1,1.8,0.2c-0.4,0.5-0.8,0.9-1.1,1.3c-0.7,1-1.5,1.9-2.2,2.9
			c-1.5,1.9-2.9,3.7-4.4,5.6c-3,3.8-5.9,7.6-8.9,11.4c-1.1,1.4,0.7,3.5,2.3,2.7c7.7-4.2,15.3-8.7,22.6-13.4
			c3.6-2.4,7.2-4.8,10.8-7.3c1.5-1.1,3.9-2.2,4.6-4.1c0.7-2.1-0.8-3.6-2.3-4.7c-3-2.3-6.4-4.2-9.9-5.8c2.5-3.5,4.5-7.4,6.4-11.3
			c2.4-4.9,4.6-9.9,7.2-14.8C704.2,132.1,704.2,131,703.3,130.4z M693.5,145.8c-2.2,4.5-4.5,9.1-7.7,13c-0.8,0.9-0.1,2.4,0.9,2.8
			c3.4,1.3,6.6,2.9,9.5,5c0.7,0.5,1.4,1,2.1,1.5c0.1,0.1,0.2,0.2,0.3,0.3c-0.1,0.1-0.3,0.3-0.4,0.3c-1.5,1.2-3.1,2.2-4.7,3.3
			c-6.3,4.4-12.8,8.5-19.4,12.4c-1.2,0.7-2.4,1.4-3.6,2.1c3.3-4.3,6.6-8.5,9.9-12.8c1.1-1.4,3.1-3.1,2.5-5c-0.6-1.9-3.4-1.8-5-2.1
			c-3.2-0.5-6.5-1-9.7-1.5c1.5-2.5,3.7-4.6,5.8-6.6c2.1-2,4.2-3.9,6.4-5.8c5.2-4.5,10.5-8.8,15.8-13.2c0.1-0.1,0.2-0.2,0.3-0.3
			C695.5,141.5,694.5,143.6,693.5,145.8z"/>
	</g>
</g>
</svg>
